<svg xmlns="http://www.w3.org/2000/svg" x="0px" y="0px" viewBox="0 0 100 100">
<style type="text/css">
	.st0{fill:#EECFA1;}
	.st1{fill:#F99C2E;}
	.st2{fill:none;stroke:#F99C2E;stroke-width:1.5;stroke-miterlimit:10;}
	.st3{fill:none;stroke:#F99C2E;stroke-width:2;stroke-miterlimit:10;}
</style>
<rect x="0" class="st0" width="100" height="100"/>
<g>
	<circle class="st1" cx="24.4" cy="35.8" r="2.7"/>
	<circle class="st1" cx="18.6" cy="41.5" r="2.7"/>
	<path class="st1" d="M82.4,60.6L81,59.1c-0.6-0.6-0.6-1.5,0-2.1v0c0.6-0.6,1.5-0.6,2.1,0l1.5,1.5c0.6,0.6,0.6,1.5,0,2.1l0,0
		C84,61.2,83,61.2,82.4,60.6z"/>
	<path class="st1" d="M78.6,64.4L77.1,63c-0.6-0.6-0.6-1.5,0-2.1v0c0.6-0.6,1.5-0.6,2.1,0l1.5,1.5c0.6,0.6,0.6,1.5,0,2.1l0,0
		C80.1,65,79.2,65,78.6,64.4z"/>
	<path class="st1" d="M74.9,68.2l-1.5-1.5c-0.6-0.6-0.6-1.5,0-2.1v0c0.6-0.6,1.5-0.6,2.1,0l1.5,1.5c0.6,0.6,0.6,1.5,0,2.1l0,0
		C76.4,68.7,75.4,68.7,74.9,68.2z"/>
	<path class="st2" d="M51.2,70.7L29.4,48.9c-2.2-2.2-2.2-5.8,0-8l11.3-11.3c2.2-2.2,5.8-2.2,8,0l21.8,21.8c2.2,2.2,2.2,5.8,0,8
		L59.2,70.7C57,72.9,53.4,72.9,51.2,70.7z"/>
	<path class="st3" d="M60.7,93.2l-54-54c-0.6-0.6-0.6-1.5,0-2L37.2,6.7c0.6-0.6,1.5-0.6,2,0l54,54c0.6,0.6,0.6,1.5,0,2L62.7,93.2
		C62.1,93.7,61.2,93.7,60.7,93.2z"/>
	<polyline class="st1" points="22.9,27.7 22.6,31.7 24.9,31.3 	"/>
	<polyline class="st1" points="10.7,39.6 14.2,41.5 14.8,39.3 	"/>
	<circle class="st1" cx="64.3" cy="75.6" r="2.7"/>
	<circle class="st1" cx="58.5" cy="81.4" r="2.7"/>
	<polyline class="st1" points="72.3,77.2 68.3,77.4 68.7,75.1 	"/>
	<polyline class="st1" points="60.4,89.3 58.5,85.8 60.7,85.2 	"/>
</g>
</svg>
