<?xml version="1.0" encoding="utf-8"?>
<!-- Generator: Adobe Illustrator 22.0.1, SVG Export Plug-In . SVG Version: 6.00 Build 0)  -->
<svg version="1.1" id="Vrstva_1" xmlns="http://www.w3.org/2000/svg" xmlns:xlink="http://www.w3.org/1999/xlink" x="0px" y="0px"
	 viewBox="0 0 230.6 230.3" style="enable-background:new 0 0 230.6 230.3;" xml:space="preserve">
<style type="text/css">
	.st0{fill:#F8A304;}
	.st1{fill:#FFFFFF;}
</style>
<path class="st0" d="M228.3,104.3c-0.3-6.7-4.5-11.6-11.1-13.1c-3.9-0.9-7.8-1.5-11.8-2.1c-2.9-0.4-4.2-2.1-5.8-4.6
	c-5.1-8.2-4-15.1,2.8-21.6c0.7-0.6,1.2-1.6,1.7-2.4c3.9-6.3,3.5-12.7-1.4-18c-4.6-5-9.5-9.9-14.5-14.5c-5.4-5-12.3-5.3-18.4-1.2
	c-2.7,1.8-5.6,3.7-8.1,5.8c-3,2.6-5.8,2.1-9.5,1c-8.3-2.5-12.5-7.2-12.3-15.9c0.1-1.1-0.3-2.3-0.6-3.4c-1.8-7.8-6.9-12-14.9-12.1
	c-6.2-0.1-12.3-0.1-18.5,0c-8.2,0.1-13.5,4.6-15,12.6c-0.7,3.9-1.4,7.9-2,11.8c-0.3,1.7-1,2.9-2.7,3.8c-11.9,6.1-11.9,6.1-22.9-1.6
	c-0.5-0.4-1.1-0.8-1.6-1.2c-7-4.8-13.8-4.4-19.9,1.5c-3.9,3.7-7.6,7.5-11.4,11.3c-8.1,8-9,14.2-1.7,23.2c5.4,6.7,7.8,12.8,2.8,20.8
	c-1.7,2.7-2.6,5-6.3,5.2c-3.4,0.2-6.9,1.1-10.3,1.8C7,93,2.7,98.2,2.6,106.1c-0.1,6.2-0.1,12.3,0,18.5c0.1,8,4.6,13.5,12.5,15.1
	c3.9,0.8,7.8,1.4,11.8,2c2,0.3,3.2,1.1,4.1,3c5.6,12.1,5.6,12.1-2.1,22.8c-0.6,0.8-1.2,1.6-1.7,2.4c-3.8,6.1-3.4,12.6,1.5,17.9
	c4.5,4.9,9.3,9.6,14.1,14.2c5.7,5.4,12.1,5.8,18.7,1.5c3.5-2.2,6.9-4.7,10.2-7.2c1.8-1.4,3.4-1.2,5.5-0.6
	c8.9,2.3,14.1,7.4,13.6,17.1c-0.1,1.3,0.5,2.6,0.8,3.9c1.7,6.5,6.6,10.8,13.2,11c7.2,0.2,14.3,0.3,21.5,0c6.5-0.2,11.5-4.6,13-11.1
	c0.9-3.7,1.5-7.5,2-11.3c0.4-3.3,2.2-4.8,5.1-6.5c7.9-4.8,14.6-3.7,20.8,2.7c0.7,0.7,1.7,1.2,2.5,1.7c6.5,4.2,13.2,3.8,18.8-1.5
	c4.7-4.5,9.3-9.1,13.8-13.8c2.8-2.9,4.3-6.3,4.1-10.7c0.3-2.8-0.8-5.6-2.6-8c-2.3-3.2-4.4-6.4-6.7-9.4c-1.7-2.3-1.3-4.3-0.6-6.9
	c2.4-9.2,8-13.6,17.4-13.3c1.1,0,2.3-0.4,3.4-0.7c6.5-1.6,10.8-6.5,11-13.1C228.5,118.6,228.5,111.5,228.3,104.3z"/>
<path class="st1" d="M66.7,114.8C66.6,88,88.2,66.2,115.1,66.1c27.6-0.1,49.2,21.2,49.4,48.8c0.1,27-21.6,48.9-48.7,49
	C88.3,163.9,66.8,142.5,66.7,114.8z M115.5,150.3c19.5,0,35.2-15.4,35.3-34.6c0.1-20.2-15.2-35.9-35-35.9
	C96,79.7,80.3,95.2,80.2,114.6C80.3,134.7,95.7,150.3,115.5,150.3z"/>
</svg>
