<?xml version="1.0" encoding="utf-8"?>
<!-- Generator: Adobe Illustrator 22.0.1, SVG Export Plug-In . SVG Version: 6.00 Build 0)  -->
<svg version="1.1" id="Vrstva_1" xmlns="http://www.w3.org/2000/svg" xmlns:xlink="http://www.w3.org/1999/xlink" x="0px" y="0px"
	 viewBox="0 0 230.6 230.3" style="enable-background:new 0 0 230.6 230.3;" xml:space="preserve">
<style type="text/css">
	.st0{fill:#F8A304;stroke:#F8A304;stroke-miterlimit:10;}
	.st1{fill:#F8A304;}
</style>
<g>
	<path class="st0" d="M206.4,177.2c0.2,4.4-1.3,7.8-4.1,10.7c-4.5,4.7-9.1,9.3-13.8,13.8c-5.6,5.3-12.3,5.7-18.8,1.5
		c-0.8-0.5-1.8-1-2.5-1.7c-6.2-6.4-12.9-7.5-20.8-2.7c-2.9,1.7-4.7,3.2-5.1,6.5c-0.5,3.8-1.1,7.6-2,11.3c-1.5,6.5-6.5,10.9-13,11.1
		c-7.2,0.3-14.3,0.2-21.5,0c-6.6-0.2-11.5-4.5-13.2-11c-0.3-1.3-0.9-2.6-0.8-3.9c0.5-9.7-4.7-14.8-13.6-17.1
		c-2.1-0.6-3.7-0.8-5.5,0.6c-3.3,2.5-6.7,5-10.2,7.2c-6.6,4.3-13,3.9-18.7-1.5c-4.8-4.6-9.6-9.3-14.1-14.2
		c-4.9-5.3-5.3-11.8-1.5-17.9c0.5-0.8,1.1-1.6,1.7-2.4c7.7-10.7,7.7-10.7,2.1-22.8c-0.9-1.9-2.1-2.7-4.1-3c-4-0.6-7.9-1.2-11.8-2
		c-7.9-1.6-12.4-7.1-12.5-15.1c-0.1-6.2-0.1-12.3,0-18.5C2.7,98.2,7,93,14.9,91.4c3.4-0.7,6.9-1.6,10.3-1.8c3.7-0.2,4.6-2.5,6.3-5.2
		c5-8,2.6-14.1-2.8-20.8c-7.3-9-6.4-15.2,1.7-23.2c3.8-3.8,7.5-7.6,11.4-11.3c6.1-5.9,12.9-6.3,19.9-1.5c0.5,0.4,1.1,0.8,1.6,1.2
		c11,7.7,11,7.7,22.9,1.6c1.7-0.9,2.4-2.1,2.7-3.8c0.6-3.9,1.3-7.9,2-11.8c1.5-8,6.8-12.5,15-12.6c6.2-0.1,12.3-0.1,18.5,0
		c8,0.1,13.1,4.3,14.9,12.1c0.3,1.1,0.7,2.3,0.6,3.4c-0.2,8.7,4,13.4,12.3,15.9c3.7,1.1,6.5,1.6,9.5-1c2.5-2.1,5.4-4,8.1-5.8
		c6.1-4.1,13-3.8,18.4,1.2c5,4.6,9.9,9.5,14.5,14.5c4.9,5.3,5.3,11.7,1.4,18c-0.5,0.8-1,1.8-1.7,2.4c-6.8,6.5-7.9,13.4-2.8,21.6
		c1.6,2.5,2.9,4.2,5.8,4.6c4,0.6,7.9,1.2,11.8,2.1c6.6,1.5,10.8,6.4,11.1,13.1c0.2,7.2,0.2,14.3,0,21.5c-0.2,6.6-4.5,11.5-11,13.1
		c-1.1,0.3-2.3,0.7-3.4,0.7c-9.4-0.3-15,4.1-17.4,13.3c-0.7,2.6-1.1,4.6,0.6,6.9c2.3,3,4.4,6.2,6.7,9.4
		C205.6,171.6,206.7,174.4,206.4,177.2z M192.5,53.1c0-1.9-1.1-2.8-2-3.7c-3-3.1-6.2-6-9.1-9.2c-2.2-2.4-4-2.3-6.4-0.4
		c-4,3-8.1,5.9-12.1,8.8c-3,2.2-6,2.5-9.3,0.6c-5.5-3.2-11.4-5.6-17.5-7.2c-4.5-1.2-6.7-4-7.2-8.4c-0.6-4.5-1.5-8.9-2.2-13.3
		c-0.5-3.2-2-4.6-5.3-4.5c-4.2,0.2-8.3,0.1-12.5,0c-2.8-0.1-4.3,0.9-4.7,3.8c-0.7,4.9-1.8,9.8-2.5,14.8c-0.6,4.1-2.7,6.5-6.7,7.7
		c-5.1,1.5-10.4,3-14.8,6c-5.3,3.6-9.6,2.8-14.5-0.9c-4.2-3.2-8.2-8.8-13.2-8.1c-4.8,0.7-7.7,6.9-11.7,10.4
		c-2.8,2.4-2.5,4.6-0.4,7.3c3,3.8,5.6,7.8,8.5,11.8c2.2,3,2.5,6.1,0.6,9.3c-3.2,5.5-5.5,11.4-7.1,17.5c-1,3.8-3.4,5.9-7.3,6.6
		c-4.9,0.8-9.8,1.7-14.8,2.5c-2.7,0.4-4.1,1.7-4,4.6c0.2,4.3,0.2,8.7,0,13c-0.2,3.2,1.4,4.4,4.3,4.9c4.9,0.7,9.8,1.7,14.8,2.5
		c3.7,0.6,6,2.5,7.1,6.1c1.5,5.1,2.9,10.4,5.9,14.8c3.9,5.6,3.1,10.2-1,15.4c-3.1,4-8.6,8-7.9,12.7c0.7,4.8,6.9,7.7,10.4,11.7
		c2.2,2.5,4.2,2.7,6.9,0.7c4-3,8.2-5.7,12.2-8.7c3-2.2,6-2.5,9.3-0.6c5.2,3,10.8,5.2,16.6,6.8c4.3,1.2,6.4,3.8,7.1,8
		c0.7,4.6,1.7,9.2,2.2,13.8c0.4,3,1.6,4.5,4.8,4.4c4.3-0.1,8.7-0.1,13,0c3.1,0.1,4.4-1.4,4.8-4.4c0.6-4.8,1.6-9.5,2.4-14.3
		c0.6-3.8,2.6-6.3,6.4-7.4c6.3-1.8,12.3-4.1,17.9-7.5c2.9-1.7,5.7-1.6,8.4,0.4c4.3,3.1,8.8,6.1,13.1,9.2c2.3,1.7,4,1.8,6-0.4
		c3.1-3.3,6.2-6.5,9.5-9.5c2.2-2,2-3.8,0.3-6c-3-4-5.7-8.2-8.7-12.2c-2.5-3.3-2.7-6.6-0.5-10.1c2.8-4.5,5-9.5,6.2-14.7
		c1.4-6.2,5.2-8.3,11.2-9.4c19.1-3.5,15.2,1.5,15.7-18.6c0-0.2,0-0.3,0-0.5c0.3-3.2-1.1-4.9-4.4-5.3c-4.6-0.6-9.2-1.6-13.8-2.3
		c-4.3-0.6-6.9-2.8-8-7.1c-1.6-6-3.9-11.7-7-17c-1.9-3.3-1.6-6.3,0.6-9.3c2.8-3.9,5.6-7.9,8.4-11.8C191.4,55.1,192,53.9,192.5,53.1z
		"/>
	<path class="st1" d="M66.7,114.8C66.6,88,88.2,66.2,115.1,66.1c27.6-0.1,49.2,21.2,49.4,48.8c0.1,27-21.6,48.9-48.7,49
		C88.3,163.9,66.8,142.5,66.7,114.8z M115.5,150.3c19.5,0,35.2-15.4,35.3-34.6c0.1-20.2-15.2-35.9-35-35.9
		C96,79.7,80.3,95.2,80.2,114.6C80.3,134.7,95.7,150.3,115.5,150.3z"/>
</g>
</svg>
